<svg xmlns="http://www.w3.org/2000/svg" viewBox="0 0 78.01 252.95"><defs><style>.cls-1{fill:#333;}.cls-2{fill:#998675;}.cls-3{fill:#564a2b;}.cls-4{fill:#1e1e1e;}.cls-5{fill:#bf9f70;}.cls-6{fill:#d9ddce;}.cls-7{fill:#82827e;}.cls-8,.cls-9{fill:#1a1a1a;}.cls-8{opacity:0.2;}.cls-9{opacity:0.1;}.cls-10{fill:#b28e5d;}.cls-11{fill:#7c6253;}.cls-12{fill:#3c3c3b;}.cls-13{fill:#5c463b;}</style></defs><title>base</title><g id="Layer_2" data-name="Layer 2"><g id="Layer_1_copy_2" data-name="Layer 1 copy 2"><polygon class="cls-1" points="36.01 240.38 23.17 237.84 8.57 244.53 8.01 246.6 7.01 250.28 7.16 250.95 36.01 250.95 36.01 240.38"/><polygon class="cls-1" points="8.01 246.6 8.57 244.53 3.64 246.11 1.44 247.3 0.07 251.2 0 250.95 7.16 250.95 7.01 250.28 8.01 246.6"/><polygon class="cls-1" points="68.35 245.89 61.45 238.25 54.1 239.13 50.51 244.42 48.51 247.71 47.78 250.95 68.77 250.95 68.35 245.89"/><polygon class="cls-2" points="36.01 252.95 36.01 250.95 0 250.95 0.51 252.95 36.01 252.95"/><polygon class="cls-2" points="68.55 252.95 68.77 250.95 47.78 250.95 48.01 252.95 68.55 252.95"/><polygon class="cls-3" points="27.01 126.79 61.26 126.27 64.01 152.86 65.84 164.94 67.18 179.65 66.01 188.51 66.65 194.36 67.01 195.3 67.88 211.45 70.45 216.05 68.13 221.07 70.01 225.48 70.01 232.84 68.18 236.23 70.57 240.38 69.42 249.81 66.04 245.85 59.55 240.76 51.34 242.45 52.01 238.88 55.41 231.14 56.92 225.29 55.24 221.15 56.92 217.56 55.24 214.92 56.92 211.57 52.21 197.57 50.88 179.65 43.91 159.47 42.96 163.99 41.64 186.44 38.81 194.17 41.17 203.79 42.01 220.58 42.01 222.28 38.15 226.24 41.03 231.71 38.08 238.88 36.75 249.81 30.14 248.31 19.11 238.12 24.13 233.64 22.73 227.37 24.01 225.48 24.01 222.28 25.04 220.32 23.79 217 26.76 212.28 25.01 193.42 25.01 155.88 27.01 126.79"/><polygon class="cls-4" points="27.01 126.79 61.38 125.78 61.61 129.68 27.01 130.7 27.01 126.79"/><polygon class="cls-5" points="15.01 123.95 15.01 140.79 15.04 148.34 13.01 153.15 13.01 155.88 15.01 159.47 15.01 161.92 15.88 163.8 20.8 166.73 21.01 164.65 21.01 163.43 19.53 161.76 18.01 160.03 18.01 157.39 18.89 157.86 19.18 159.29 20.71 161.95 22.21 161.95 22.78 161.08 21.37 157.4 21.55 154.19 21.46 150.97 19.39 147.95 19.2 147.95 20.05 139.18 22.61 134.09 25.04 123.95 15.01 123.95"/><path class="cls-5" d="M35.24,48.52s.52,12,1,12.23c.18.06,1.16,17.82,1.16,17.82l6.45-1.74,1.06-12.32,6.26-4.64-.47-4.79.85-6Z"/><polygon class="cls-6" points="31.01 99.11 31.99 83.07 33.01 71.38 33.01 65.72 34.02 61.8 33.5 60.66 31.86 63.64 24.49 66.85 21.36 67.73 19.5 71.27 19.39 79.49 15.05 108.16 13.54 110.61 16.56 113.06 16.75 115.7 15.24 121.36 13.54 122.87 15.05 124.76 23.35 127.59 24.62 127.66 26.44 125.38 27.01 126.79 29.01 103.07 31.01 99.11"/><polygon class="cls-6" points="54.01 57.8 54.01 57.8 51.48 57.6 47.87 60.95 46.36 60.95 44.09 64.28 43.34 68.96 41.27 72.53 40.32 77.42 38.81 73.08 39.75 63.93 37.75 59.77 35.42 58.16 34.48 58.74 33.44 60.66 34.02 61.8 33.01 65.72 33.01 71.38 31.99 83.07 31.01 99.11 29.01 103.07 27.01 126.79 55.31 126.44 50.03 102.69 54.01 57.8"/><polygon class="cls-7" points="39.17 126.22 38.43 130.95 46.67 130.95 45.62 125.38 39.17 126.22"/><polygon class="cls-1" points="48.51 247.71 51.7 245.21 56.59 244.6 59.85 245.45 61.68 247.71 62.51 250.95 47.78 250.95 48.51 247.71"/><polygon class="cls-8" points="55.03 135.74 58.81 136.43 60.27 136.06 59.61 137.85 58.14 138.22 55.41 137.27 52.78 136.3 55.03 135.74"/><polygon class="cls-8" points="46.67 162.28 50.17 153.28 45.51 157.45 42.67 155.28 40.08 162.11 41.34 173.11 39.41 180.28 40.01 185.95 38.81 194.17 41.64 186.44 42.96 163.99 43.91 159.47 50.88 179.65 50.17 170.78 46.67 162.28"/><polygon class="cls-8" points="33.84 137.31 29.66 137.96 27.99 137.61 28.89 139.31 30.56 139.66 33.54 138.76 36.41 137.84 33.84 137.31"/><polygon class="cls-6" points="77.01 110.61 77.01 90.62 75.01 72.89 74.18 68.27 71.26 66.95 68.81 65.67 64.47 63.86 57.49 60.83 53.9 57.8 49.94 102.69 55.24 126.44 61.41 126.26 64.02 115.53 63.98 109.7 65.97 104.76 65.55 109.14 66.16 111.37 65.55 112.7 64.46 114.32 64.94 116.51 64.01 120.57 64.01 122.78 75.18 124.95 76.05 123.25 76.46 119.48 78.01 116.65 78.01 113.44 77.01 110.61"/><polygon class="cls-5" points="64.89 122.78 64.58 144.61 63.87 146.76 61.76 147.26 60.76 148.32 59.64 153.04 58.7 154.75 57.27 156.47 56.92 157.39 57.3 158.88 58.34 159.37 60.27 158.26 61.71 155.5 63.01 155.79 63.01 157.39 61.17 158.8 58.11 159.94 57.01 161.35 57.01 161.92 58.47 162.15 61.12 163.14 64 162.1 65.46 158.9 67.01 155.69 67.01 151.35 71.21 139.85 74.18 124.74 67.64 123.49 64.89 122.78"/><polygon class="cls-8" points="34.08 63.5 36.48 62.4 39 63.29 37.32 62.35 36.2 61.94 33.59 63.29 33.07 63.97 34.08 63.5"/><polygon class="cls-8" points="50.53 61.18 53.35 60.49 56.03 61.8 54.29 60.59 53.11 59.99 50.02 60.88 49.34 61.47 50.53 61.18"/><polygon class="cls-8" points="65.97 110.54 65.04 103.48 66.01 95.04 66.01 86.54 67.26 91.91 67.01 94.12 67.01 99.79 67.97 105.61 66.7 108.74 65.97 110.54"/><polygon class="cls-8" points="26.61 126.42 25.88 103.78 26.38 95.74 25.97 88.65 26.88 93.56 27.33 94.82 26.28 105.22 26.35 108.18 26.93 110.04 26.61 126.42"/><polygon class="cls-9" points="40.1 128.61 43.57 128.59 45 128.88 44.12 127.95 42.7 127.66 40.25 127.9 37.91 128.16 40.1 128.61"/><path class="cls-5" d="M52.08,57.86l-.52-5.32.94-6.63-18.16-.67s.58,13.38,1.15,13.59"/><path class="cls-10" d="M45.32,56.32c5.37-.85,10.43-2.45,11.63-4.62s4.29-6.08,3.92-7.95.18-9.08.37-10.71,1.3-4.58,1.2-6.13S62.35,21.24,60,18,49,8.51,42.92,8.82,28.57,10.3,28.57,10.3,25.24,14.18,24.32,17a19.16,19.16,0,0,0,0,9.47c.65,1.71.27,6,.92,8.83s.93,8.56,2,11.58.28,3.18,3.33,5.35,9.35,5,14.72,4.11"/><path class="cls-11" d="M39.35,36.57,38.91,38s7.64-1.59,9.36-.82l-.45-1.39"/><path class="cls-10" d="M25.55,31.88s-1.46-1.55-2.64-1.16S19.45,32,19.63,33.12s1.73,8.54,3.19,9.39A3.26,3.26,0,0,0,26.37,42C26.74,41.58,25.55,31.88,25.55,31.88Z"/><path class="cls-11" d="M25.11,33.35s-3-.7-3.56.44a2,2,0,0,0,.62,2.48A17.87,17.87,0,0,1,24,37.71l2.14-.14Z"/><ellipse class="cls-12" cx="24.38" cy="39.96" rx="1.95" ry="2.03" transform="translate(-6.79 5.04) rotate(-10.37)"/><path class="cls-10" d="M60.52,32.5s.64-1.37,1.82-1.29,3.1.72,3.55,1.69,0,3.95-.36,4.75-2.73,4.91-3.19,4.91a15.53,15.53,0,0,1-2.46-.81Z"/><path class="cls-11" d="M60.6,34.7s1.7-2.08,2.5-1.28.94,1.59.29,2.23-1.8,1.52-2.56,2.29-1,.12-1,.12Z"/><ellipse class="cls-12" cx="61.74" cy="39.52" rx="1.96" ry="1.96" transform="translate(17.21 97.74) rotate(-85.21)"/><path class="cls-13" d="M33.5,42.58c.29.77,1.21,2.44,4,5.14,1.45,1.4,11.93-1.86,13.46-.29l3.59-6.09a3.69,3.69,0,0,1-1.85.73,163,163,0,0,1-16.47.71C35.54,42.75,33.5,42.58,33.5,42.58Z"/><path class="cls-13" d="M28,9.06l-3.28,2.72c.82.39-.09,1.47-1.09,3.1s-1.51,8.54-1.51,11l.24-.93,2.16,11,1.73,1.47A90.29,90.29,0,0,1,25.4,27c0-2.9,1.61-5.74,1.71-6.21.27-1.24,5.72-7.08,5.72-7.08Z"/><path class="cls-13" d="M34.15,15.29c.17.18,9.29,3.88,12.38,4.11,0,0-1.18-1-.91-1.09s4.5,0,5,0,2.24.35,2.24.35-1.55.78-1.18.78,5.46,4.66,6.19,5.28,1.43,14.24,1.43,14.7,6.67-15.17,6.67-15.17l1.46-.16L62.19,10.25l2.42,1.63-4.4-6.3s-5.3-3.37-6.3-4-5.37-3-12.75-.42c0,0-8.63,1.51-8.9,1.35S27.68,9,27.68,9l5.37,5.51A5.24,5.24,0,0,1,34.15,15.29Z"/></g></g></svg>