<svg xmlns="http://www.w3.org/2000/svg" viewBox="0 0 36.61 20.01"><defs><style>.cls-1{fill:#b28e5d;}.cls-2{fill:#9e7b51;}</style></defs><title>jaw</title><g id="Layer_2" data-name="Layer 2"><g id="Layer_1_copy_2" data-name="Layer 1 copy 2"><g id="jaw"><path class="cls-1" d="M28.46,15.74,8.33,15.35a1,1,0,0,1-.91-.58L1.71,3.36A1,1,0,0,1,3,1.91l.6.22c.18.07,3.07,1.61,3.19,1.76L9.08,7.27c.46.37.6.94,1.21,1,2.06.07,7.76-.38,10.65-.48,4.22-.15,6.19.07,7-.5A9.29,9.29,0,0,0,29.38,6l2.83-3.79a1,1,0,0,1,.39-.32l.08,3L29.46,15.06A1,1,0,0,1,28.46,15.74Z"/><path class="cls-2" d="M29.2,20l6.12-7.14,1.29-.33-1-8.41L34.13,2.25c0,.83-3.86,7.52-3.86,7.52l-1.68.39-.09,1.32-7.11-.54-.66.7-1.12-1.47-11.51,4,.65-1.55L7.14,11.24,7.89,10,6.67,9.77,1.31,0l-1,6.19L0,11.69l.75.06,7,7.72"/></g></g></g></svg>